<svg width="50" height="50" viewBox="0 0 50 50" fill="none" xmlns="http://www.w3.org/2000/svg">
<path fill-rule="evenodd" clip-rule="evenodd" d="M25 0C11.1929 0 0 11.1929 0 25C0 38.8071 11.1929 50 25 50C38.8071 50 50 38.8071 50 25C50 11.1929 38.8071 0 25 0ZM19.5034 11.7472C20.9256 11.6825 21.3801 11.6667 25.0012 11.6667H24.9971C28.6193 11.6667 29.0721 11.6825 30.4943 11.7472C31.9138 11.8122 32.8832 12.037 33.7333 12.3667C34.611 12.707 35.3527 13.1625 36.0944 13.9042C36.8361 14.6453 37.2916 15.3892 37.6333 16.2662C37.9611 17.114 38.1861 18.0829 38.2527 19.5023C38.3166 20.9245 38.3333 21.379 38.3333 25.0001C38.3333 28.6213 38.3166 29.0746 38.2527 30.4969C38.1861 31.9158 37.9611 32.885 37.6333 33.733C37.2916 34.6097 36.8361 35.3536 36.0944 36.0947C35.3535 36.8364 34.6108 37.2931 33.7341 37.6336C32.8857 37.9633 31.9157 38.1881 30.4963 38.2531C29.074 38.3178 28.621 38.3336 24.9996 38.3336C21.3787 38.3336 20.9245 38.3178 19.5023 38.2531C18.0831 38.1881 17.1139 37.9633 16.2656 37.6336C15.3892 37.2931 14.6453 36.8364 13.9044 36.0947C13.163 35.3536 12.7075 34.6097 12.3666 33.7327C12.0372 32.885 11.8125 31.9161 11.7472 30.4966C11.6827 29.0744 11.6666 28.6213 11.6666 25.0001C11.6666 21.379 11.6833 20.9243 11.7469 19.502C11.8108 18.0831 12.0358 17.114 12.3664 16.2659C12.708 15.3892 13.1636 14.6453 13.9053 13.9042C14.6464 13.1628 15.3903 12.7072 16.2672 12.3667C17.115 12.037 18.0839 11.8122 19.5034 11.7472Z" fill="#FA5A4C"/>
<path fill-rule="evenodd" clip-rule="evenodd" d="M23.8049 14.0697C24.0371 14.0694 24.287 14.0695 24.5566 14.0696L25.001 14.0697C28.561 14.0697 28.983 14.0825 30.3888 14.1464C31.6888 14.2059 32.3944 14.4231 32.8644 14.6056C33.4866 14.8472 33.9302 15.1361 34.3966 15.6028C34.8633 16.0695 35.1522 16.5139 35.3944 17.1362C35.5769 17.6056 35.7944 18.3112 35.8536 19.6112C35.9175 21.0168 35.9314 21.439 35.9314 24.9974C35.9314 28.5557 35.9175 28.9779 35.8536 30.3835C35.7941 31.6835 35.5769 32.3891 35.3944 32.8585C35.1528 33.4808 34.8633 33.9238 34.3966 34.3902C33.93 34.8569 33.4869 35.1458 32.8644 35.3875C32.3949 35.5708 31.6888 35.7875 30.3888 35.8469C28.9832 35.9108 28.561 35.9247 25.001 35.9247C21.4407 35.9247 21.0187 35.9108 19.6131 35.8469C18.3131 35.7869 17.6076 35.5697 17.1373 35.3872C16.5151 35.1455 16.0706 34.8566 15.6039 34.3899C15.1373 33.9233 14.8484 33.4799 14.6062 32.8574C14.4236 32.388 14.2061 31.6824 14.147 30.3824C14.0831 28.9768 14.0703 28.5546 14.0703 24.994C14.0703 21.4334 14.0831 21.0134 14.147 19.6079C14.2064 18.3078 14.4236 17.6023 14.6062 17.1323C14.8478 16.51 15.1373 16.0656 15.6039 15.5989C16.0706 15.1323 16.5151 14.8434 17.1373 14.6011C17.6073 14.4178 18.3131 14.2011 19.6131 14.1414C20.8432 14.0859 21.3198 14.0692 23.8049 14.0664V14.0697ZM32.1182 16.2836C31.2349 16.2836 30.5182 16.9995 30.5182 17.8831C30.5182 18.7664 31.2349 19.4831 32.1182 19.4831C33.0016 19.4831 33.7183 18.7664 33.7183 17.8831C33.7183 16.9998 33.0016 16.2831 32.1182 16.2831V16.2836ZM18.1537 25.0004C18.1537 21.2191 21.2194 18.1532 25.0007 18.1531C28.7821 18.1531 31.8472 21.219 31.8472 25.0004C31.8472 28.7818 28.7824 31.8463 25.001 31.8463C21.2195 31.8463 18.1537 28.7818 18.1537 25.0004Z" fill="#FA5A4C"/>
<path d="M25.0011 20.5557C27.4556 20.5557 29.4456 22.5454 29.4456 25.0002C29.4456 27.4546 27.4556 29.4446 25.0011 29.4446C22.5464 29.4446 20.5566 27.4546 20.5566 25.0002C20.5566 22.5454 22.5464 20.5557 25.0011 20.5557Z" fill="#FA5A4C"/>
</svg>
