<svg width="50" height="50" viewBox="0 0 50 50" fill="none" xmlns="http://www.w3.org/2000/svg">
<path fill-rule="evenodd" clip-rule="evenodd" d="M25 0C11.1929 0 0 11.1929 0 25C0 38.8071 11.1929 50 25 50C38.8071 50 50 38.8071 50 25C50 11.1929 38.8071 0 25 0ZM27.0358 32.8919C26.7893 33.1518 26.308 33.2043 26.308 33.2043H24.7142C24.7142 33.2043 21.1979 33.4117 18.1003 30.2469C14.7222 26.794 11.7394 19.9433 11.7394 19.9433C11.7394 19.9433 11.5672 19.4939 11.7537 19.2776C11.9637 19.033 12.5363 19.0177 12.5363 19.0177L16.346 18.9933C16.346 18.9933 16.7047 19.0509 16.9617 19.2366C17.1742 19.3902 17.2929 19.6757 17.2929 19.6757C17.2929 19.6757 17.9086 21.2044 18.7237 22.587C20.3162 25.2871 21.0571 25.8773 21.597 25.588C22.3848 25.1668 22.1487 21.7715 22.1487 21.7715C22.1487 21.7715 22.1631 20.5399 21.7522 19.9907C21.434 19.5656 20.834 19.4414 20.5693 19.4069C20.354 19.3787 20.7062 18.8896 21.1627 18.6707C21.8487 18.3417 23.0591 18.3225 24.4899 18.3366C25.605 18.3481 25.9259 18.4159 26.3615 18.5196C27.3725 18.7591 27.341 19.5266 27.2729 21.183C27.2525 21.6784 27.2288 22.2533 27.2288 22.9173C27.2288 23.0666 27.2244 23.2256 27.2199 23.3893C27.1962 24.2379 27.1691 25.2096 27.7388 25.5713C28.031 25.7557 28.7444 25.5982 30.5299 22.6229C31.3764 21.212 32.0103 19.5541 32.0103 19.5541C32.0103 19.5541 32.1498 19.2583 32.3651 19.1316C32.5855 19.0023 32.8828 19.042 32.8828 19.042L36.8922 19.0177C36.8922 19.0177 38.0973 18.8755 38.2916 19.4107C38.4964 19.9702 37.8417 21.2786 36.2035 23.4218C34.6496 25.4553 33.8934 26.204 33.9628 26.8662C34.0135 27.35 34.5051 27.7876 35.4483 28.6465C37.4175 30.4411 37.9453 31.3853 38.0721 31.6122C38.0826 31.631 38.0904 31.6449 38.096 31.6539C38.979 33.0916 37.1165 33.2043 37.1165 33.2043L33.5545 33.2529C33.5545 33.2529 32.7902 33.4014 31.7833 32.7229C31.2559 32.3678 30.7405 31.7877 30.2496 31.2352C29.4999 30.3915 28.8073 29.6121 28.2162 29.7962C27.2236 30.106 27.2536 32.2044 27.2536 32.2044C27.2536 32.2044 27.2615 32.6538 27.0358 32.8919Z" fill="#FA5A4C"/>
</svg>
