<svg width="130" height="21" fill="none" xmlns="http://www.w3.org/2000/svg"><path d="M0 4.28h6.3v16.383h4.942V4.28h6.29V.279H0V4.28zm38.041 6.191C38.041 3.733 33.706 0 28.136 0c-5.591 0-9.896 3.733-9.896 10.471 0 6.709 4.305 10.47 9.896 10.47 5.57 0 9.905-3.732 9.905-10.47zm-5.125 0c0 3.991-1.782 6.151-4.78 6.151-2.988 0-4.78-2.16-4.78-6.151 0-3.991 1.792-6.151 4.78-6.151 2.998 0 4.78 2.16 4.78 6.151zM52.947.279v12.72c0 2.12-1.53 3.643-3.768 3.643-2.248 0-3.767-1.523-3.767-3.643V.28h-5.014v13.148c0 4.559 3.504 7.495 8.781 7.495 5.237 0 8.771-2.936 8.771-7.495V.28h-5.003zm7.575 20.384h5.014v-6.977h2.573l3.788 6.977h5.469L73.06 12.9c2.28-1.016 3.596-3.016 3.596-5.833 0-4.19-2.907-6.788-7.566-6.788h-8.569v20.384zm5.014-10.859V4.25h2.471c2.249 0 3.454.926 3.454 2.817s-1.205 2.737-3.454 2.737h-2.471zM83.85.279h-5.014v20.384h5.014V.28zM97.639 6.39h4.801C102.399 2.578 99.31 0 94.489 0c-4.74 0-8.153 2.538-8.123 6.33-.01 3.096 2.198 4.838 5.783 5.644l2.168.498c2.279.517 3.302 1.124 3.322 2.269-.02 1.244-1.206 2.11-3.221 2.11-2.218 0-3.677-1.015-3.788-2.976h-4.8c.06 4.768 3.433 7.047 8.649 7.047 5.165 0 8.224-2.3 8.244-6.171-.02-3.255-2.258-5.246-6.35-6.131l-1.783-.398c-1.884-.399-3.079-1.016-3.038-2.23.01-1.115.982-1.921 2.927-1.921 1.954 0 3.028.866 3.16 2.32zm6.367-2.11h6.3v16.383h4.943V4.28h6.289V.279h-17.532V4.28zM126.928 21c1.619 0 3.048-1.347 3.072-3.02-.024-1.648-1.453-2.984-3.072-2.984-1.702 0-3.096 1.336-3.073 2.985-.023 1.672 1.371 3.019 3.073 3.019z" fill="#115EB6"/></svg>