<svg width="130" height="21" viewBox="0 0 130 21" fill="none" xmlns="http://www.w3.org/2000/svg">
<path d="M0 4.27996H6.29983V20.6632H11.2425V4.27996H17.5322V0.278695H0V4.27996Z" fill="#115EB6"/>
<path d="M38.0414 10.471C38.0414 3.73252 33.7064 0 28.1358 0C22.545 0 18.2404 3.73252 18.2404 10.471C18.2404 17.1796 22.545 20.9419 28.1358 20.9419C33.7064 20.9419 38.0414 17.2094 38.0414 10.471ZM32.9164 10.471C32.9164 14.4623 31.1338 16.6222 28.1358 16.6222C25.148 16.6222 23.3553 14.4623 23.3553 10.471C23.3553 6.47966 25.148 4.31977 28.1358 4.31977C31.1338 4.31977 32.9164 6.47966 32.9164 10.471Z" fill="#115EB6"/>
<path d="M52.9471 0.278695V12.9991C52.9471 15.1192 51.4177 16.6421 49.1793 16.6421C46.9308 16.6421 45.4116 15.1192 45.4116 12.9991V0.278695H40.398V13.4271C40.398 17.9858 43.9024 20.922 49.1793 20.922C54.4157 20.922 57.9505 17.9858 57.9505 13.4271V0.278695H52.9471Z" fill="#115EB6"/>
<path d="M60.5224 20.6632H65.5359V13.6859H68.1085L71.8965 20.6632H77.3658L73.0613 12.8996C75.3401 11.8844 76.6568 9.88372 76.6568 7.06691C76.6568 2.87653 73.75 0.278695 69.0909 0.278695H60.5224V20.6632ZM65.5359 9.80409V4.2501H68.0072C70.2557 4.2501 71.461 5.17576 71.461 7.06691C71.461 8.95805 70.2557 9.80409 68.0072 9.80409H65.5359Z" fill="#115EB6"/>
<path d="M83.8498 0.278695H78.8362V20.6632H83.8498V0.278695Z" fill="#115EB6"/>
<path d="M97.6388 6.39008H102.44C102.399 2.57793 99.31 0 94.4889 0C89.7488 0 86.3356 2.53812 86.366 6.33036C86.3558 9.42586 88.5638 11.1677 92.1492 11.9739L94.3167 12.4716C96.5956 12.9892 97.6186 13.5963 97.6388 14.741C97.6186 15.9851 96.4335 16.8511 94.418 16.8511C92.1999 16.8511 90.7414 15.8358 90.63 13.875H85.8292C85.8899 18.6427 89.2627 20.922 94.4788 20.922C99.6442 20.922 102.703 18.6228 102.723 14.7509C102.703 11.4962 100.465 9.50549 96.3728 8.61964L94.5902 8.2215C92.7063 7.82337 91.5112 7.20626 91.5517 5.99194C91.5618 4.87716 92.5341 4.07094 94.4788 4.07094C96.4335 4.07094 97.5071 4.93688 97.6388 6.39008Z" fill="#115EB6"/>
<path d="M104.006 4.27996H110.306V20.6632H115.249V4.27996H121.538V0.278695H104.006V4.27996Z" fill="#115EB6"/>
<path d="M126.928 21C128.547 21 129.976 19.653 130 17.9808C129.976 16.3319 128.547 14.9964 126.928 14.9964C125.226 14.9964 123.832 16.3319 123.855 17.9808C123.832 19.653 125.226 21 126.928 21Z" fill="#115EB6"/>
</svg>
