<svg width="20" height="20" viewBox="0 0 20 20" fill="none" xmlns="http://www.w3.org/2000/svg">
<path d="M16.666 2.49967H15.8327V1.66634C15.8327 1.20801 15.4577 0.833008 14.9993 0.833008C14.541 0.833008 14.166 1.20801 14.166 1.66634V2.49967H5.83268V1.66634C5.83268 1.20801 5.45768 0.833008 4.99935 0.833008C4.54102 0.833008 4.16602 1.20801 4.16602 1.66634V2.49967H3.33268C2.41602 2.49967 1.66602 3.24967 1.66602 4.16634V17.4997C1.66602 18.4163 2.41602 19.1663 3.33268 19.1663H16.666C17.5827 19.1663 18.3327 18.4163 18.3327 17.4997V4.16634C18.3327 3.24967 17.5827 2.49967 16.666 2.49967ZM15.8327 17.4997H4.16602C3.70768 17.4997 3.33268 17.1247 3.33268 16.6663V6.66634H16.666V16.6663C16.666 17.1247 16.291 17.4997 15.8327 17.4997Z" fill="#FA5A4C"/>
</svg>
