<svg width="20" height="20" viewBox="0 0 20 20" fill="none" xmlns="http://www.w3.org/2000/svg">
<path d="M9.99935 1.66699C6.77435 1.66699 4.16602 4.27533 4.16602 7.50033C4.16602 10.9753 7.84935 15.767 9.36602 17.592C9.69935 17.992 10.3077 17.992 10.641 17.592C12.1494 15.767 15.8327 10.9753 15.8327 7.50033C15.8327 4.27533 13.2243 1.66699 9.99935 1.66699ZM9.99935 9.58366C8.84935 9.58366 7.91602 8.65033 7.91602 7.50033C7.91602 6.35033 8.84935 5.41699 9.99935 5.41699C11.1493 5.41699 12.0827 6.35033 12.0827 7.50033C12.0827 8.65033 11.1493 9.58366 9.99935 9.58366Z" fill="#FA5A4C"/>
</svg>
